# xmcd CD database file
#
# Track frame offsets:
#	150
#	20700
#	44311
#	72677
#	95327
#	120227
#	150828
#	184130
#	215481
#	239781
#	269482
#	293932
#
# Disc length: 4308 seconds
#
# Revision: 0
# Processed by: cddbd v1.5.1PL2 Copyright (c) Steve Scherf et al.
# Submitted via: CDex 1.51
#
DISCID=b210d20c
DTITLE=Barbara Carroll - Sentimental Mood
DYEAR=2006
DGENRE=Jazz
TTITLE0=Lady Be Good
TTITLE1=Autumn In New York
TTITLE2=You'd Be So Nice To Come Home To
TTITLE3=Here's That Rainy Day
TTITLE4=Fly Me To The Moon
TTITLE5=Last Night When We Were Young
TTITLE6=On A Clear Day
TTITLE7=My Funny Valentine
TTITLE8=In A Sentimental Mood
TTITLE9=Yesterdays
TTITLE10=I Guess I'll Have To Change My Plans
TTITLE11=As Long As I Live
EXTD=YEAR: 2006
EXTT0=
EXTT1=
EXTT2=
EXTT3=
EXTT4=
EXTT5=
EXTT6=
EXTT7=
EXTT8=
EXTT9=
EXTT10=
EXTT11=
PLAYORDER=
